<svg t="1751947525846" class="icon" viewBox="0 0 1024 1024" version="1.1" xmlns="http://www.w3.org/2000/svg" p-id="8882" width="256" height="256"><path d="M179.32 355.99c-3.433 9.036-5.18 18.433-5.18 27.95V629.7c0 31.382 18.914 60.476 49.875 76.62l230.701 120.108c5.24 2.65 10.662 4.94 16.264 6.807v140.71a109.086 109.086 0 0 1-11.626-5.18l-359.002-186.85c-30.9-16.083-49.875-45.177-49.875-76.5V326.055c0-10.843 2.29-21.504 6.626-31.383l122.217 61.26z m794.203-29.936v379.301c0 31.383-18.974 60.416-49.935 76.5l-358.942 186.97c-3.795 1.867-7.65 3.614-11.626 5.12V829.8c2.41-1.084 4.82-2.168 7.108-3.373L790.829 706.32c30.961-16.143 49.935-45.176 49.935-76.62V383.94c0-5.059-0.482-10.059-1.445-15.058l130.83-65.536c2.17 7.349 3.374 14.938 3.374 22.709zM564.646 62.704l354.002 184.2-124.325 62.284a122.458 122.458 0 0 0-3.494-1.807L560.19 187.15a115.893 115.893 0 0 0-105.413 0L235.038 301.598l-119.627-59.994 343.943-178.96c32.467-16.865 72.885-16.865 105.412 0z" fill="#3888FF" p-id="8883"></path><path d="M256.301 383.277L483.147 496.52v248.29a110.29 110.29 0 0 1-32.888-10.843L297.864 655c-30.48-15.842-49.152-44.514-49.152-75.415V416.708c0-11.686 2.71-23.01 7.59-33.43z" fill="#3888FF" p-id="8884"></path><path d="M755.11 579.584c0 30.9-18.673 59.573-49.273 75.415l-152.275 78.908c-2.65 1.385-5.42 2.71-8.192 3.855V504.23l207.993-103.726c1.205 5.361 1.747 10.783 1.747 16.204v162.876z" fill="#A6C6FD" p-id="8885"></path><path d="M705.958 341.353c6.385 3.313 12.408 7.289 17.83 11.807l-200.102 99.81h-3.253L297.382 341.593l0.542-0.3 152.335-78.97a114.025 114.025 0 0 1 103.303 0l152.396 79.03z" fill="#3888FF" p-id="8886"></path></svg>