<svg t="1751963228035" class="icon" viewBox="0 0 1024 1024" version="1.1" xmlns="http://www.w3.org/2000/svg" p-id="1063" width="256" height="256"><path d="M273.3048636 15.26488785c-45.17573645 27.26905599-73.30831183 125.66489933-63.08241691 218.97051958l3.86311663 37.08591616-21.31531246 21.31531245c-69.03616043 68.17263997-86.48835628 173.84023194-43.03965968 259.05603189l11.4984523 22.5878677-10.63493184 26.3600878c-27.72354061 69.49064399-25.58746384 153.43388873 4.68118723 213.92574425l12.36197276 24.26945983-7.68078446 15.77060369c-17.45219583 35.81335984-25.99649968 114.62093166-15.77060368 150.43429256l4.27215139 16.17963954h64.35497214l-3.408632-14.08901263c-2.1360757-7.22629984-3.86311663-32.76831597-3.86311556-56.21970305 0-40.44909937 0.86352046-44.31221598 16.22508832-76.26246027 8.49885613-18.31571629 15.72515598-36.63143152 15.72515491-40.44909936 0-3.86311663-5.90829582-16.63412415-13.634528-28.58706107-37.90398782-59.21930028-38.76750829-131.66409165-2.95414738-202.790879 15.77060369-31.54120845 15.31612014-41.35806861-2.13607569-62.62793228-23.86042399-28.17802416-35.35887629-73.71734767-28.13257646-111.21229966 10.225896-53.72004031 43.03965969-98.85032796 87.35187567-119.75660457 21.31531245-10.225896 31.08672383-12.3619717 58.35577982-12.3619717h33.2682483l8.49885614-17.04315999c19.58827153-38.76750829 53.67459152-65.58207966 99.71384843-78.8075718 59.21930028-17.45219583 132.52761211 15.77060369 164.88689116 74.98990396l10.225896 18.77019985 36.22239676 2.09062798c61.8098606 4.27215246 99.2593638 28.99609585 126.11938394 83.12517199 27.26905599 55.35618366 23.86042399 114.1664481-8.95334075 157.20610777-18.31571629 23.86042399-18.31571629 34.08631999-2.54511154 65.62752845 35.76791213 71.12678735 34.94984045 143.61702857-2.99959616 202.790879-7.68078446 11.95293586-13.634528 24.72394446-13.63452799 28.54161228 0 3.86311663 7.27174861 22.17883186 15.77060368 40.44909937 15.36156785 31.99569201 16.17963953 35.81335984 16.1796406 76.35335676 0 23.40593937-1.68159214 48.9479555-3.81766784 56.21970413l-3.40863199 14.04356384h64.35497212l4.22670369-15.7706037c10.225896-36.22239568 1.72703986-115.02996749-15.77060476-150.8433284l-7.63533568-15.77060369 12.36197276-24.26945983c30.22320337-60.49185551 32.35928013-144.43510024 4.22670368-214.74381592l-10.63493183-26.81457243 11.49845123-23.45138816c25.58746384-52.85651984 28.99609585-115.89348796 8.54430493-175.56727178-11.54390001-34.08631999-26.86002015-58.35577981-54.12907615-84.35227951L810.59616309 271.32132359l3.81766783-37.08591616c7.68078446-70.30871567-9.36237554-158.06962825-37.90398782-195.56458021-22.58786769-29.81416752-52.85651984-38.76750829-84.35227951-25.54201507-28.99609585 11.90748814-54.12907614 54.9925966-66.08201306 113.30292763-5.49925998 27.72354061-8.49885613 33.67728415-13.63452799 31.54120739-36.17694798-16.58867537-64.30952336-22.99690353-100.94095488-22.99690354-37.49495198 0-56.67418767 4.6811883-99.30481258 22.99690354-5.09022415 2.1360757-8.0898203-3.81766784-13.634528-31.54120739-11.90748814-58.35577981-37.04046736-101.34999178-66.03656427-113.30292763-19.58827153-8.54430386-43.90318015-7.27174861-59.21929921 2.1360757z m479.75359134 185.33868423c0-45.58477229-7.68078446-86.07932043-21.31531244-112.48485596-4.6811883-9.40782431-10.225896-17.04315999-12.31652292-17.04316001-12.81645632 0-33.67728415 60.49185551-37.49495199 106.48566365-3.86311663 51.58396461-2.59056032 53.72004031 31.49575967 57.53770813 15.36156785 1.72703986 30.67768799 3.81766784 34.08631999 5.13567187 4.27215246 1.68159214 5.5447077-6.81726399 5.54470769-39.63102768z m-412.44447184 26.40553552c10.225896-15.36156785-1.68159214-98.44129212-18.72475213-133.34568379-5.5447077-10.68038062-12.3619717-20.45179199-14.90708323-21.36076018-6.81726399-2.49966383-21.36076017 27.26905599-28.99609691 59.26474801-3.40863201 14.9070843-6.36277937 45.58477229-6.36277937 68.62712459 0 37.90398782 0.81807168 41.72165566 7.63533567 39.58557891 3.86311663-1.2725563 18.77019985-3.40863201 32.81376368-5.09022308 14.08901262-1.72703986 26.81457136-5.13567185 28.54161229-7.68078446z m17.90668046 303.36824788c11.08941645-38.35847244 43.44869553-69.85423212 91.1695435-89.07891659 16.22508831-6.36277937 29.40513169-7.63533568 66.90008368-6.81726399 43.44869553 0.90896818 49.44788784 1.72703986 75.44438859 14.95253307 53.26555569 26.40553553 84.35227951 75.4443886 78.80757182 124.84682766-5.09022415 40.90358399-29.40513169 71.58127197-73.26286412 92.03306396-24.31490862 11.04396767-28.99609585 11.90748814-85.26124769 11.90748814-56.21970412 0-60.90089135-0.86352046-85.21579996-11.90748814-59.62833612-28.17802416-85.21579997-78.39853597-68.58167582-135.93624411z m328.50122712-87.7609115c-13.634528 7.68078446-18.72475213 17.04315999-19.1792357 34.08631998 0 21.31531245 20.90627661 45.99380813 39.22199184 45.99380707 24.67849567 0 41.31261983-14.9070843 41.72165567-37.49495199 0-34.90439167-34.08631999-58.35577981-61.76441181-42.58517506z m-388.12956324-0.45448462c-19.63372031 9.81686016-29.85961631 47.72084798-17.49764461 63.94593628 7.68078446 9.77141138 22.13338414 16.58867537 36.22239674 16.58867539 18.31571629 0 39.17654412-24.67849567 39.17654306-45.99380707 0-8.54430386-2.54511154-18.77019985-5.54470769-22.58786876a43.63048958 43.63048958 0 0 0-52.40203628-11.95293584z m298.23257603 63.94593628c-10.63493183-9.40782431-28.13257645-20.04275616-38.76750828-23.45138814-24.26945984-8.49885613-69.89967983-8.0898203-93.76010383 0-9.77141138 3.81766784-26.36008782 14.08901262-37.04046843 23.45138814-37.49495198 33.17735181-40.44909937 72.85382827-7.27174756 103.07703165 23.04235232 20.90627661 42.63062384 26.45098431 92.03306397 26.45098432 49.44788784 0 69.08160815-5.5447077 92.07851169-26.45098432 33.17735181-30.22320337 30.22320337-69.85423212-7.27174756-103.07703165zM484.18556289 557.64641147c-7.63533568-5.09022415-11.4984523-25.99649968-5.49925999-31.95024429 4.22670368-3.81766784 58.76481565-2.1360757 64.76400798 2.5451126 8.0898203 6.36277937 5.90829582 18.77019985-4.27215138 28.54161123-5.95374353 5.5447077-9.36237554 13.634528-9.36237661 24.31490862-0.45448462 15.77060369-0.90896818 16.17963953-17.49764355 16.17963952s-17.04315999-0.45448462-18.31571629-17.04315999c-0.86352046-10.63493183-4.6811883-18.77019985-9.81686016-22.58786769z" fill="#000000" p-id="1064"></path></svg>