<?xml version="1.0" standalone="no"?><!DOCTYPE svg PUBLIC "-//W3C//DTD SVG 1.1//EN" "http://www.w3.org/Graphics/SVG/1.1/DTD/svg11.dtd"><svg t="1747640620453" class="icon" viewBox="0 0 1025 1024" version="1.1" xmlns="http://www.w3.org/2000/svg" p-id="3817" xmlns:xlink="http://www.w3.org/1999/xlink" width="200.1953125" height="200"><path d="M841.142857 73.142857a109.714286 109.714286 0 0 1 109.202286 99.181714L950.857143 182.857143v294.107428a36.571429 36.571429 0 0 1-72.557714 6.582858L877.714286 476.964571V194.340571L569.051429 459.776c-32.182857 19.529143-71.826286 21.211429-108.909715 2.121143l-10.020571-5.705143L146.285714 194.56v573.44a36.571429 36.571429 0 0 0 29.988572 35.986286L182.857143 804.571429h221.842286a36.571429 36.571429 0 0 1 6.582857 72.557714l-6.582857 0.585143H182.857143a109.714286 109.714286 0 0 1-109.202286-99.181715L73.142857 768v-585.142857a109.714286 109.714286 0 0 1 99.181714-109.202286L182.857143 73.142857h658.285714z m-19.675428 73.142857H202.24L492.982857 397.238857a40.740571 40.740571 0 0 0 29.257143 5.046857l3.949714-1.462857L821.467429 146.285714z" fill="#4C5D7C" p-id="3818"></path><path d="M857.526857 626.395429l5.632 3.510857 146.651429 109.421714a36.571429 36.571429 0 0 1 5.558857 53.613714l-5.266286 4.827429-142.482286 108.544a36.571429 36.571429 0 0 1-49.225142-53.76l4.900571-4.388572 56.32-43.008-257.755429 0.073143a36.571429 36.571429 0 0 1-6.582857-72.557714l6.582857-0.585143H877.714286l-58.294857-43.593143a36.571429 36.571429 0 0 1 38.107428-62.098285z" fill="#1476BB" p-id="3819"></path></svg>